,
.   http://www.scenetime.com/signup.php  ---&gt;  Hottest scene tracker on the net !!!
 
Scenetime lucky draw is started , join now and be the winner . offer is limited 

    Join Now   http://www.scenetime.com/signup.php

    seed back for speed


 



...................................NFO:.................................................[IMG]http://img62.imageshack.us/img62/8859/51yj6baavl.jpg[/IMG]


[color=blue][size=5][b]Final.Destination.5.2011.BDRip.XVID.AC3.HQ.Hive-CM8[/b][/size][/color]


[b]Thx Hive

CM8 Doing It Right The First Time :D


Source: Bluray

Video: 720x304 @bitrate 1700 2pass
Audio: English DTS to AC3 5.1 @448
Sample: Yes, included
Subs: Yes, English in srt /subs
 
http://www.imdb.com/title/tt1622979/


Notes:
i am very busy atm, will try to get the major movies done.[/b]


General
Complete name                  : Final.Destination.5.2011.BDRip.XVID.AC3.HQ.Hive-CM8.avi
Format                         : AVI
Format/Info                    : Audio Video Interleave
File size                      : 1.39 GiB
Duration                       : 1h 31mn
Overall bit rate               : 2 160 Kbps
Writing application            : Nandub v1.0rc2
Writing library                : Nandub build 1853/release

Video
ID                             : 0
Format                         : MPEG-4 Visual
Format profile                 : Advanced Simple@L5
Format settings, BVOP          : 1
Format settings, QPel          : Yes
Format settings, GMC           : No warppoints
Format settings, Matrix        : Default (H.263)
Muxing mode                    : Packed bitstream
Codec ID                       : XVID
Codec ID/Hint                  : XviD
Duration                       : 1h 31mn
Bit rate                       : 1 702 Kbps
Width                          : 720 pixels
Height                         : 304 pixels
Display aspect ratio           : 2.40:1
Frame rate                     : 23.976 fps
Color space                    : YUV
Chroma subsampling             : 4:2:0
Bit depth                      : 8 bits
Scan type                      : Progressive
Compression mode               : Lossy
Bits/(Pixel*Frame)             : 0.324
Stream size                    : 1.09 GiB (79%)
Writing library                : XviD 1.2.1 (UTC 2008-12-04)

Audio
ID                             : 1
Format                         : AC-3
Format/Info                    : Audio Coding 3
Mode extension                 : CM (complete main)
Codec ID                       : 2000
Duration                       : 1h 31mn
Bit rate mode                  : Constant
Bit rate                       : 448 Kbps
Channel(s)                     : 6 channels
Channel positions              : Front: L C R, Side: L R, LFE
Sampling rate                  : 48.0 KHz
Bit depth                      : 16 bits
Compression mode               : Lossy
Stream size                    : 294 MiB (21%)
Alignment                      : Split accross interleaves
Interleave, duration           : 42 ms (1.00 video frame)
Interleave, preload duration   : 500 ms


Plot:
Survivors of a suspension-bridge collapse learn there's no way you can cheat Death.


Cast:
Nicholas D'Agosto   ...    Sam
Emma Bell           ...    Molly Harper
Miles Fisher        ...    Peter Friedkin
Ellen Wroe          ...    Candice Hooper
Arlen Escarpeta     ...    Nathan


[img]http://img525.imageshack.us/img525/9489/ffii.png[/img]
[img]http://img337.imageshack.us/img337/3223/ffiffiii.png[/img]
[img]http://img23.imageshack.us/img23/2598/ffifii.png[/img]
[img]http://img528.imageshack.us/img528/6229/52438720.png[/img]
[img]http://img33.imageshack.us/img33/3145/ffififfiffiiii.png[/img]
[img]http://img543.imageshack.us/img543/7779/ffififfififfiiii.png[/img]
[img]http://img337.imageshack.us/img337/4784/ffififfifiii.png[/img]
[img]http://img507.imageshack.us/img507/8602/ffififfiii.png[/img]



Greetz

ViSiON,SPK,SANTi,3LT0N,FUSiON,YanKeeS,MAGNET,THC,LKRG,Feel-Free,FANTASIA-PLAY,FANTASIA-M,FLAWL3SS,
WBZ,ZMG,BHRG,NOVA,D2U,Vik,Rapeseed,T0XiC,SAFC,goldadvance,MEMORY100,KaN1vE,Unevano,Pinnz,Wayne
Mr Hive,and most P2P groups
Great Work Guys :D

LOOKING FOR ANYTHING YOU WANT TO LOOK AND SOUND BETTER

CM8@hushmail.com